<svg width="16" height="15" viewBox="0 0 16 15" fill="none" xmlns="http://www.w3.org/2000/svg">
<g clip-path="url(#clip0_2_51)">
<path d="M5.33318 14.9334C5.92228 14.9334 6.39984 14.4558 6.39984 13.8667C6.39984 13.2776 5.92228 12.8 5.33318 12.8C4.74407 12.8 4.26651 13.2776 4.26651 13.8667C4.26651 14.4558 4.74407 14.9334 5.33318 14.9334Z" fill="white"/>
<path d="M12.8001 14.9334C13.3892 14.9334 13.8668 14.4558 13.8668 13.8667C13.8668 13.2776 13.3892 12.8 12.8001 12.8C12.211 12.8 11.7335 13.2776 11.7335 13.8667C11.7335 14.4558 12.211 14.9334 12.8001 14.9334Z" fill="white"/>
<path d="M14.9333 2.66678H3.104L2.66667 0.426775C2.64173 0.304495 2.57471 0.19483 2.47726 0.11687C2.37981 0.0389102 2.25811 -0.00240773 2.13333 0.000108501H0V1.06678H1.696L3.73333 11.3068C3.75827 11.4291 3.82529 11.5387 3.92274 11.6167C4.02019 11.6946 4.1419 11.736 4.26667 11.7334H13.8667V10.6668H4.704L4.26667 8.53344H13.8667C13.99 8.53646 14.1105 8.49665 14.2077 8.4208C14.305 8.34496 14.3729 8.23775 14.4 8.11744L15.4667 3.31744C15.4845 3.23831 15.4841 3.15614 15.4655 3.07719C15.4468 2.99824 15.4103 2.9246 15.3589 2.86185C15.3075 2.79911 15.2424 2.74893 15.1687 2.71512C15.0949 2.68132 15.0144 2.66478 14.9333 2.66678ZM13.44 7.46678H4.064L3.31733 3.73344H14.2667L13.44 7.46678Z" fill="white"/>
</g>
<defs>
<clipPath id="clip0_2_51">
<rect width="16" height="14.9334" fill="white"/>
</clipPath>
</defs>
</svg>
