<svg width="20" height="20" viewBox="0 0 20 20" fill="none" xmlns="http://www.w3.org/2000/svg">
<path fill-rule="evenodd" clip-rule="evenodd" d="M11.4601 12.3183L15.7639 16.6221C15.9151 16.7734 16.0001 16.9787 16 17.1927C15.9999 17.4067 15.9148 17.6119 15.7635 17.7632C15.6121 17.9145 15.4068 17.9994 15.1928 17.9994C14.9788 17.9993 14.7736 17.9142 14.6223 17.7628L10.3185 13.459C9.03194 14.4555 7.41407 14.9245 5.79403 14.7704C4.17398 14.6164 2.67346 13.851 1.59771 12.6299C0.521957 11.4089 -0.0482098 9.82384 0.00319691 8.1973C0.0546036 6.57076 0.723722 5.0249 1.87443 3.87419C3.02514 2.72348 4.57101 2.05436 6.19754 2.00295C7.82408 1.95155 9.40911 2.52171 10.6302 3.59746C11.8513 4.67321 12.6167 6.17374 12.7707 7.79378C12.9247 9.41383 12.4558 11.0317 11.4593 12.3183H11.4601ZM6.4003 13.199C7.67328 13.199 8.89412 12.6933 9.79425 11.7932C10.6944 10.8931 11.2001 9.67223 11.2001 8.39925C11.2001 7.12627 10.6944 5.90543 9.79425 5.0053C8.89412 4.10517 7.67328 3.59948 6.4003 3.59948C5.12732 3.59948 3.90648 4.10517 3.00634 5.0053C2.10621 5.90543 1.60052 7.12627 1.60052 8.39925C1.60052 9.67223 2.10621 10.8931 3.00634 11.7932C3.90648 12.6933 5.12732 13.199 6.4003 13.199Z" fill="white"/>
</svg>
